HIERARCHY
ROOT Hips
{
 OFFSET 0.000000 0.000000 0.000000
 CHANNELS 6 Xposition Yposition Zposition Yrotation Xrotation Zrotation
 JOINT Chest
 {
  OFFSET 0.000000 9.585900 0.002600
  CHANNELS 3 Yrotation Xrotation Zrotation
  JOINT Chest2
  {
   OFFSET 0.000000 9.601200 -0.005300
   CHANNELS 3 Yrotation Xrotation Zrotation
   JOINT Chest3
   {
    OFFSET 0.000000 9.561800 0.000000
    CHANNELS 3 Yrotation Xrotation Zrotation
    JOINT Chest4
    {
     OFFSET 0.000000 9.552100 0.000000
     CHANNELS 3 Yrotation Xrotation Zrotation
     JOINT Neck
     {
      OFFSET 0.000000 14.453000 0.000000
      CHANNELS 3 Yrotation Xrotation Zrotation
      JOINT Head
      {
       OFFSET 0.000000 8.936500 -0.011300
       CHANNELS 3 Yrotation Xrotation Zrotation
       End Site
       {
        OFFSET 0.000000 17.073600 -0.006000
       }
      }
     }
     JOINT RightCollar
     {
      OFFSET -2.921100 9.558500 0.000000
      CHANNELS 3 Yrotation Xrotation Zrotation
      JOINT RightShoulder
      {
       OFFSET -13.519700 0.000000 0.000000
       CHANNELS 3 Yrotation Xrotation Zrotation
       JOINT RightElbow
       {
        OFFSET 0.000000 -29.696600 0.000000
        CHANNELS 3 Yrotation Xrotation Zrotation
        JOINT RightWrist
        {
         OFFSET 0.000000 -24.004700 0.000000
         CHANNELS 3 Yrotation Xrotation Zrotation
         End Site
         {
          OFFSET 0.000000 -17.728500 0.000000
         }
        }
       }
      }
     }
     JOINT LeftCollar
     {
      OFFSET 2.921100 9.558500 0.000000
      CHANNELS 3 Yrotation Xrotation Zrotation
      JOINT LeftShoulder
      {
       OFFSET 13.519700 0.000000 0.000000
       CHANNELS 3 Yrotation Xrotation Zrotation
       JOINT LeftElbow
       {
        OFFSET 0.000000 -29.696600 0.000000
        CHANNELS 3 Yrotation Xrotation Zrotation
        JOINT LeftWrist
        {
         OFFSET 0.000000 -24.004700 0.000000
         CHANNELS 3 Yrotation Xrotation Zrotation
         End Site
         {
          OFFSET 0.000000 -17.728500 0.000000
         }
        }
       }
      }
     }
    }
   }
  }
 }
 JOINT RightHip
 {
  OFFSET -7.771700 -0.012900 -0.001300
  CHANNELS 3 Yrotation Xrotation Zrotation
  JOINT RightKnee
  {
   OFFSET 0.000000 -40.869800 0.001200
   CHANNELS 3 Yrotation Xrotation Zrotation
   JOINT RightAnkle
   {
    OFFSET 0.000000 -39.717900 0.002100
    CHANNELS 3 Yrotation Xrotation Zrotation
    JOINT RightToe
    {
     OFFSET 0.000000 -4.965400 11.033500
     CHANNELS 3 Yrotation Xrotation Zrotation
     End Site
     {
      OFFSET 0.000000 -1.423100 5.872300
     }
    }
   }
  }
 }
 JOINT LeftHip
 {
  OFFSET 7.771700 -0.012900 -0.001300
  CHANNELS 3 Yrotation Xrotation Zrotation
  JOINT LeftKnee
  {
   OFFSET 0.000000 -40.869800 0.001200
   CHANNELS 3 Yrotation Xrotation Zrotation
   JOINT LeftAnkle
   {
    OFFSET 0.000000 -39.717900 0.002100
    CHANNELS 3 Yrotation Xrotation Zrotation
    JOINT LeftToe
    {
     OFFSET 0.000000 -4.965400 11.033500
     CHANNELS 3 Yrotation Xrotation Zrotation
     End Site
     {
      OFFSET 0.000000 -1.423100 5.872300
     }
    }
   }
  }
 }
}
MOTION
Frames: 13
Frame Time: 0.008333
3.327972 49.937226 42.738995 172.185078 -32.741919 -6.629585 6.971045 19.476152 7.697551 0.809912 2.681442 0.759557 1.280102 4.297913 1.223968 5.806196 16.779022 5.559904 -4.106287 15.542314 -0.061564 -7.589388 -6.851289 1.293773 -1.134033 -0.890027 -3.803968 3.507341 -4.338906 -1.539296 101.561372 -76.952199 -117.054093 0.255269 -3.352354 0.233465 -11.070287 -1.239822 0.169554 4.088710 -5.092499 0.086934 -95.340683 -64.232284 110.855863 11.491287 -8.556524 -20.007031 0.458299 -48.689778 10.062864 -81.916454 83.915827 -70.257637 -0.757665 -8.490282 -3.984134 -0.250423 1.006499 -0.125991 -10.169909 -52.164095 18.010412 -151.055655 83.815067 -158.355106 -0.646138 -11.682489 7.005373 -0.232737 -0.505382 -0.071281
3.325554 49.938686 42.738801 172.199270 -32.749669 -6.617946 7.009530 19.529510 7.723266 0.804151 2.684555 0.758990 1.299723 4.335663 1.239559 5.805456 16.792768 5.569426 -4.161170 15.430105 -0.118213 -7.650989 -7.089827 1.143065 -1.155099 -0.837624 -3.746543 3.605583 -4.367287 -1.518251 101.641557 -76.847723 -117.142207 0.281643 -3.422629 0.054847 -11.118941 -1.168364 0.153680 4.003822 -5.135513 0.080143 -95.189182 -64.413674 110.755441 11.387325 -8.378113 -19.855161 0.436026 -48.678572 10.049972 -81.950145 83.925663 -70.299565 -0.779263 -8.499547 -3.979713 -0.279340 1.006316 -0.138053 -10.145489 -52.160451 17.975472 -151.013632 83.816169 -158.314660 -0.655521 -11.667989 7.005781 -0.228217 -0.512593 -0.070652
3.325864 49.938991 42.741066 172.198196 -32.744061 -6.619626 7.062671 19.566289 7.769202 0.797477 2.688780 0.758034 1.318487 4.374109 1.255112 5.801030 16.809663 5.576894 -4.202501 15.304831 -0.200700 -7.730688 -7.336627 1.026609 -1.165933 -0.785339 -3.688544 3.697271 -4.400219 -1.499432 101.731730 -76.740253 -117.240894 0.316458 -3.530400 -0.173907 -11.158078 -1.103773 0.138817 3.936506 -5.174480 0.071827 -95.055340 -64.598633 110.673063 11.254746 -8.121638 -19.854140 0.421806 -48.684023 10.061371 -82.014823 83.922347 -70.358228 -0.792435 -8.541563 -3.968025 -0.326781 1.039135 -0.158522 -10.146006 -52.165879 17.985746 -150.920273 83.817488 -158.232644 -0.630100 -11.654558 7.019716 -0.256429 -0.516342 -0.091437
3.322756 49.939844 42.740664 172.210609 -32.748207 -6.609573 7.084502 19.610903 7.785159 0.784475 2.674365 0.750234 1.339610 4.424408 1.274286 5.807465 16.845883 5.592271 -4.244363 15.153687 -0.316212 -7.809018 -7.579365 0.942497 -1.164485 -0.732655 -3.631812 3.775078 -4.437132 -1.483840 101.861330 -76.646429 -117.366888 0.344856 -3.630095 -0.411277 -11.185446 -1.044826 0.127375 3.886336 -5.213633 0.055910 -94.947216 -64.792188 110.612330 11.082506 -7.780504 -20.001234 0.385353 -48.678772 10.063081 -82.070362 83.930058 -70.431715 -0.803493 -8.539383 -3.975779 -0.281933 1.031612 -0.157396 -10.120812 -52.163972 17.961349 -150.879605 83.820642 -158.203729 -0.642181 -11.639202 7.035040 -0.256680 -0.523109 -0.092041
3.319398 49.942521 42.736455 172.264620 -32.770243 -6.621217 7.073229 19.680402 7.800484 0.796274 2.702600 0.761023 1.334177 4.432951 1.274821 5.811504 16.883417 5.606769 -4.290508 15.002482 -0.406873 -7.875381 -7.845737 0.833379 -1.155027 -0.678195 -3.577173 3.831432 -4.476228 -1.471263 102.061499 -76.575451 -117.543438 0.367581 -3.677011 -0.559847 -11.200482 -0.989862 0.119411 3.852729 -5.324181 0.036786 -94.729734 -64.998874 110.419563 10.855711 -7.342281 -20.290156 0.340772 -48.651281 10.039478 -82.153860 83.945262 -70.521741 -0.767839 -8.502009 -4.016967 -0.234504 0.988189 -0.124568 -10.083830 -52.151575 17.910461 -150.831143 83.817207 -158.146869 -0.686175 -11.619177 7.047232 -0.232170 -0.534095 -0.074133
3.316506 49.943790 42.733810 172.305156 -32.777194 -6.633648 7.074779 19.735271 7.819148 0.805880 2.732102 0.770974 1.331477 4.440745 1.275606 5.816257 16.921466 5.620084 -4.335965 14.851832 -0.484744 -7.937880 -8.127812 0.713988 -1.143721 -0.620266 -3.522839 3.868392 -4.519185 -1.460183 102.309436 -76.529731 -117.753493 0.381848 -3.704267 -0.682489 -11.203696 -0.938542 0.121097 3.810774 -5.435719 0.011091 -94.550801 -65.205398 110.276714 10.565909 -6.800309 -20.712933 0.296703 -48.638906 10.030044 -82.259613 83.948953 -70.637968 -0.707886 -8.497071 -4.035320 -0.227785 0.977994 -0.113705 -10.069367 -52.141346 17.888519 -151.001042 83.833250 -158.326418 -0.724990 -11.617521 7.069922 -0.239175 -0.525324 -0.074730
3.313253 49.945094 42.729837 172.324728 -32.787553 -6.635413 7.094541 19.793091 7.836012 0.808937 2.746979 0.774794 1.336289 4.463670 1.281613 5.822366 16.960129 5.631096 -4.377735 14.710093 -0.530435 -7.997095 -8.428635 0.568276 -1.129938 -0.556474 -3.468490 3.903293 -4.567694 -1.451269 102.561978 -76.506192 -117.975161 0.385483 -3.713738 -0.780201 -11.193111 -0.893586 0.135148 3.761953 -5.400242 -0.048305 -94.759408 -65.386213 110.553716 10.212127 -6.167211 -21.263564 0.276219 -48.625455 10.020845 -82.360046 83.949954 -70.741379 -0.681536 -8.503545 -4.048164 -0.223616 0.976644 -0.108515 -10.038605 -52.133530 17.865710 -151.136038 83.841019 -158.465893 -0.755421 -11.597431 7.072767 -0.242783 -0.536291 -0.061401
3.310276 49.946050 42.725171 172.339931 -32.795225 -6.639344 7.099969 19.825406 7.844522 0.828762 2.788078 0.784841 1.341707 4.487490 1.287235 5.830303 17.000123 5.640414 -4.424005 14.551789 -0.620699 -8.060264 -8.704790 0.468734 -1.113567 -0.489455 -3.416013 3.945557 -4.618649 -1.444752 102.814402 -76.499256 -118.213533 0.384913 -3.702742 -0.859365 -11.173014 -0.860686 0.158550 3.719081 -5.456980 -0.107789 -94.871930 -65.611325 110.697734 9.800592 -5.466917 -21.924293 0.264583 -48.615821 10.013980 -82.458368 83.951876 -70.834454 -0.676475 -8.516343 -4.061127 -0.208560 0.979732 -0.102175 -10.016868 -52.123174 17.850601 -151.225771 83.847394 -158.560886 -0.782371 -11.594235 7.090099 -0.245600 -0.531852 -0.066243
3.306837 49.946641 42.719285 172.360312 -32.801557 -6.644866 7.101346 19.857497 7.852627 0.841782 2.813433 0.790398 1.360638 4.532127 1.295850 5.841651 17.042438 5.650575 -4.472609 14.397304 -0.708384 -8.129047 -8.978594 0.374368 -1.094484 -0.425974 -3.364848 3.991931 -4.665844 -1.439702 103.084305 -76.506171 -118.484787 0.393796 -3.671898 -0.929142 -11.149351 -0.845779 0.187791 3.683537 -5.521203 -0.175070 -95.071210 -65.870092 110.904350 9.354702 -4.725191 -22.661427 0.238309 -48.604512 10.010651 -82.550153 83.961735 -70.925461 -0.681323 -8.534521 -4.074283 -0.208844 0.983243 -0.097950 -10.014791 -52.113400 17.836516 -151.287575 83.850652 -158.628451 -0.795496 -11.586713 7.095194 -0.244675 -0.529894 -0.069711
3.303076 49.947138 42.711499 172.402416 -32.810112 -6.659959 7.109212 19.918002 7.872910 0.816281 2.778437 0.781894 1.406532 4.619168 1.310349 5.858207 17.087480 5.663320 -4.523818 14.249912 -0.776880 -8.205291 -9.253838 0.274420 -1.069874 -0.371412 -3.313265 4.042605 -4.702357 -1.438190 103.387151 -76.528864 -118.809790 0.416592 -3.619343 -0.980494 -11.125287 -0.850420 0.216844 3.654099 -5.569073 -0.245269 -95.410080 -66.155503 111.230858 8.905746 -3.966561 -23.445669 0.185158 -48.584754 10.006264 -82.636717 83.980168 -71.016366 -0.683326 -8.553581 -4.087392 -0.209169 0.982326 -0.097157 -10.005530 -52.107727 17.809350 -151.301414 83.848289 -158.640765 -0.813081 -11.565462 7.100809 -0.240006 -0.537057 -0.065595
3.302467 49.946930 42.703792 172.420276 -32.817022 -6.680490 7.211978 20.034817 7.932150 0.815347 2.795765 0.789005 1.379943 4.591865 1.310264 5.881244 17.134556 5.677533 -4.579706 14.106560 -0.839085 -8.292674 -9.520985 0.187979 -1.037812 -0.330179 -3.257348 4.096811 -4.718611 -1.444740 103.753029 -76.572169 -119.214553 0.450008 -3.535685 -0.997595 -11.107116 -0.872042 0.243139 3.621964 -5.652044 -0.294591 -95.753796 -66.481729 111.549287 8.475372 -3.216553 -24.265835 0.149696 -48.572900 10.023881 -82.699154 83.989457 -71.078752 -0.676085 -8.564773 -4.094258 -0.205738 0.981079 -0.096074 -9.995730 -52.108672 17.820713 -151.285860 83.833411 -158.625748 -0.827207 -11.529625 7.100819 -0.238741 -0.560752 -0.050474
3.304935 49.944262 42.698851 172.400978 -32.805660 -6.699446 7.265990 20.048091 7.972356 0.861877 2.873975 0.798051 1.379463 4.602711 1.315626 5.910330 17.183660 5.691419 -4.650124 13.942414 -0.863295 -8.378308 -9.753996 0.082474 -0.997532 -0.306467 -3.196520 4.154644 -4.704213 -1.462487 104.263442 -76.657280 -119.772314 0.500569 -3.406097 -0.967069 -11.096849 -0.906594 0.269068 3.598968 -5.750732 -0.330355 -96.131019 -66.827445 111.886471 8.070586 -2.499091 -25.129157 0.121311 -48.584002 10.065403 -82.758505 84.002668 -71.138600 -0.629859 -8.606863 -4.089848 -0.232795 1.014536 -0.111231 -10.015148 -52.116489 17.878177 -151.329271 83.824722 -158.681885 -0.807279 -11.521818 7.112984 -0.274169 -0.542701 -0.075161
3.299229 49.944858 42.683472 172.444296 -32.844835 -6.691556 7.254942 20.126234 7.955040 0.902846 2.937350 0.807180 1.393858 4.636461 1.323332 5.945510 17.234996 5.704575 -4.715227 13.823197 -0.924391 -8.501944 -10.003362 0.049564 -0.952412 -0.299843 -3.135315 4.219672 -4.656045 -1.492451 105.049776 -76.825818 -120.608390 0.577874 -3.213941 -0.863735 -11.093288 -0.948778 0.295613 3.575757 -5.867536 -0.350757 -96.517578 -67.168290 112.224977 7.693682 -1.822366 -26.049376 0.124799 -48.539819 10.001135 -82.989243 84.024614 -71.347652 -0.660780 -8.611733 -4.118764 -0.192950 0.986773 -0.094915 -9.978799 -52.084750 17.821408 -151.173619 83.800103 -158.545742 -0.813255 -11.493224 7.128580 -0.263506 -0.560378 -0.068366
